<?xml version="1.0" standalone="no"?><!DOCTYPE svg PUBLIC "-//W3C//DTD SVG 1.1//EN" "http://www.w3.org/Graphics/SVG/1.1/DTD/svg11.dtd"><svg t="1572942237917" class="icon" viewBox="0 0 1024 1024" version="1.1" xmlns="http://www.w3.org/2000/svg" p-id="16919" xmlns:xlink="http://www.w3.org/1999/xlink" width="64" height="64"><defs><style type="text/css"></style></defs><path d="M937.758155 341.532839a32.50453 32.50453 0 0 0-1.855573-7.230338l-112.358179-245.703534A148.765812 148.765812 0 0 0 626.597664 13.032333L108.892639 244.659102A149.46965 149.46965 0 0 0 34.029844 442.501636l103.656178 215.56646v216.846166A149.213709 149.213709 0 0 0 286.835746 1024h566.909717a149.213709 149.213709 0 0 0 149.149723-149.085738V464.768518a149.085738 149.085738 0 0 0-65.137031-123.235679zM92.064506 415.563826a85.228413 85.228413 0 0 1 42.998119-112.486149L652.76765 71.706849a84.972472 84.972472 0 0 1 112.486149 43.25406l91.754914 200.721871H286.835746A149.341679 149.341679 0 0 0 137.686022 464.768518v45.621516z m846.845385 459.414421A85.228413 85.228413 0 0 1 853.745463 960.014705h-566.909717a85.228413 85.228413 0 0 1-85.164429-85.100443V464.832504a85.292399 85.292399 0 0 1 85.164429-85.228414h566.909717a85.292399 85.292399 0 0 1 85.164428 85.164428z" p-id="16920"></path><path d="M749.065519 624.027919a31.992648 31.992648 0 0 0-24.314412 3.26325L448.014705 787.254407a31.992648 31.992648 0 0 0 16.060309 59.634295 32.440545 32.440545 0 0 0 15.932338-4.223029l276.992344-159.963239a31.992648 31.992648 0 0 0 14.972559-19.195588 31.992648 31.992648 0 0 0-22.650794-39.286972zM708.946739 544.110285a31.992648 31.992648 0 0 0-48.180927-27.705633l-276.736403 159.963238a31.992648 31.992648 0 1 0 31.992648 55.411266l277.056329-159.963238a31.992648 31.992648 0 0 0 15.868353-27.705633z" p-id="16921"></path></svg>