<?xml version="1.0" standalone="no"?><!DOCTYPE svg PUBLIC "-//W3C//DTD SVG 1.1//EN" "http://www.w3.org/Graphics/SVG/1.1/DTD/svg11.dtd"><svg t="1572942339343" class="icon" viewBox="0 0 1025 1024" version="1.1" xmlns="http://www.w3.org/2000/svg" p-id="17482" xmlns:xlink="http://www.w3.org/1999/xlink" width="64.0625" height="64"><defs><style type="text/css"></style></defs><path d="M377.952 968.896C181.6 910.016 44.48 725.536 44.48 520.32c0-204.832 136.8-389.216 332.704-448.352a22.208 22.208 0 1 0-12.864-42.56C149.824 94.176 0 296.064 0 520.32c0 224.704 150.176 426.656 365.184 491.2a22.176 22.176 0 0 0 27.68-14.912 22.272 22.272 0 0 0-14.912-27.712M661.024 29.408a22.176 22.176 0 0 0-27.712 14.848 22.304 22.304 0 0 0 14.848 27.744c195.904 59.136 332.704 243.52 332.704 448.352 0 205.184-137.12 389.664-333.504 448.576a22.272 22.272 0 0 0 6.368 43.552 23.328 23.328 0 0 0 6.4-0.96c215.008-64.512 365.184-266.464 365.184-491.168 0.032-224.32-149.792-426.176-364.288-490.944" fill="#757575" p-id="17483"></path><path d="M792.48 68.928H655.36a20.224 20.224 0 1 1 0-40.48h137.088a20.224 20.224 0 0 1 0.032 40.48M373.568 1012.448H236.48a20.224 20.224 0 1 1 0-40.48h137.088a20.224 20.224 0 0 1 0 40.48" fill="#757575" p-id="17484"></path><path d="M512 900.128c-214.016 0-388.128-174.08-388.128-388.128C123.872 297.984 297.984 123.872 512 123.872S900.128 297.984 900.128 512 726.016 900.128 512 900.128m0-734.08c-190.752 0-345.952 155.2-345.952 345.952S321.248 857.952 512 857.952 857.952 702.752 857.952 512 702.752 166.048 512 166.048" fill="#747575" p-id="17485"></path><path d="M565.024 834.144l-1.728-0.064c-16.448-1.056-32.896-17.472-32.48-46.72 0.224-16.832 6.368-35.68 12.288-53.952 5.28-16.16 13.248-40.576 8.8-47.04a113.632 113.632 0 0 0-15.104-16.672c-11.968-11.552-25.504-24.672-25.92-47.904-0.16-8.128-2.56-14.304-5.088-20.832-4.256-10.976-9.536-24.576-0.32-42.304a97.984 97.984 0 0 0-4.384-2.368c-8.16-4.352-19.36-10.272-27.232-22.496l-2.976-4.672c-9.792-15.424-9.792-15.424-34.528-22.24-33.696-9.312-70.976-22.624-87.072-62.848-4.256-10.624-10.496-17.984-17.088-25.76-11.776-13.824-25.088-29.504-24.736-61.408 0.128-11.104 0.928-20.64 1.664-29.088 2.144-25.024 1.952-25.056-6.976-26.304-9.472-1.312-20.16 4.032-31.552 9.696-16 7.968-35.936 17.888-56.512 7.328a14.784 14.784 0 0 1 13.472-26.272c6.976 3.552 15.904-0.544 29.888-7.488 14.208-7.072 30.336-15.104 48.896-12.48 36.768 5.152 34.368 33.28 32.256 58.08-0.672 7.904-1.44 16.896-1.536 26.88-0.224 20.864 7.296 29.728 17.696 41.952 7.488 8.832 15.968 18.816 22.016 33.952 9.984 24.96 33.248 35.84 67.52 45.312 13.888 3.84 22.88 6.944 29.632 10.816-3.936-5.248-6.048-10.848-7.872-15.68-1.44-3.808-2.688-7.2-4.736-10.4-1.824 0.416-4.448 1.344-6.368 2.016-7.808 2.688-18.496 6.4-28.928 1.12-6.592-3.36-11.328-9.44-13.984-18.144a44.416 44.416 0 0 1 11.52-45.888 48.672 48.672 0 0 1 50.08-10.816c5.44 1.888 13.056 3.424 18.464 0.192 5.216-3.168 7.264-10.176 8.096-15.52 4.672-30.432 19.2-48.256 41.152-66.976 1.44-5.44-4.864-20.096-18.816-43.584-7.68-13.056-13.824-23.392-3.808-32.288 6.528-5.824 14.592-5.12 24 2.016 6.944 5.28 14.336 11.584 21.536 17.696 2.144 1.888 4.672 4.032 7.232 6.144l0.576-2.944c0.736-4.256 1.664-9.056 1.984-16.896-0.64-5.344-13.152-16.384-37.184-32.704-10.656-7.232-15.072-10.336-17.824-14.624a17.888 17.888 0 0 1-0.896-19.264c6.752-11.168 20.864-10.464 47.328-8.16 21.024 1.856 39.328-10.528 39.52-10.656a14.816 14.816 0 0 1 16.992 24.16c-0.992 0.704-22.944 15.872-51.264 16.192 17.312 12.928 33.632 28.608 32.832 46.336-0.416 9.888-1.6 16.288-2.464 20.96-1.056 5.984-1.6 8.704-0.128 16.416 2.4 12.736-4.672 18.4-7.872 20.224-7.488 4.352-14.688 2.624-24.16-3.648 3.68 14.016 2.944 27.456-8 36.768-20.8 17.728-28.48 29.696-31.456 49.312-3.264 20.992-13.792 31.328-22.048 36.32-8.384 5.056-22.72 9.568-43.36 2.432a19.52 19.52 0 0 0-19.872 4.128 14.912 14.912 0 0 0-4 15.456c1.632-0.448 3.648-1.152 5.184-1.664 8.704-3.04 26.88-9.312 38.72 6.784 5.12 6.944 7.648 13.696 9.696 19.104 3.36 8.928 4.16 11.04 13.792 13.152 19.36 4.224 25.696 16.384 29.472 23.68 0.672 1.28 1.568 3.04 2.112 3.776 0.48 0.064 1.568 0.224 3.616 0.096 6.112-0.416 13.344-2.912 20.928-5.504 19.008-6.528 44.992-15.456 69.952 6.4 9.952 8.736 17.376 17.024 24.544 25.024 12.8 14.24 23.808 26.56 46.88 38.368 12.32 6.272 22.784 10.624 31.296 14.112 19.328 7.968 36.032 14.848 36.032 35.52 0 14.016-11.584 22.976-23.84 32.512-13.024 10.048-27.776 21.504-32.064 38.848-7.808 31.616-30.368 44.928-46.848 54.656-7.072 4.16-13.76 8.096-17.824 12.48-6.944 7.552-17.088 15.008-27.936 22.88-10.336 7.584-31.936 23.36-32.704 30.016-1.824 14.72-12.64 24.96-26.176 24.96m-78.528-334.208c3.008 3.616 5.92 7.968 9.376 13.376l2.88 4.512c3.68 5.76 9.792 8.96 16.256 12.448 8.032 4.256 17.152 9.056 20.32 19.616 2.048 6.816 0.928 14.144-3.328 21.92-3.296 5.984-2.4 8.768 1.376 18.528 3.04 7.872 6.816 17.632 7.072 31.04 0.192 10.496 5.952 16.544 16.96 27.2 6.016 5.888 12.896 12.576 18.848 21.088 12.704 18.496 4.096 44.96-5.024 72.96-5.28 16.128-10.688 32.8-10.88 45.152a29.568 29.568 0 0 0 2.368 13.216c4.832-17.28 24.576-31.68 43.648-45.664 9.152-6.688 18.656-13.6 23.648-19.04 7.008-7.584 15.904-12.832 24.544-17.92 15.2-8.992 28.352-16.736 33.12-36.288 6.752-27.328 27.488-43.392 42.624-55.168 3.936-3.04 9.056-6.976 11.552-9.6-3.2-2.144-10.688-5.216-16.896-7.776a416.832 416.832 0 0 1-33.44-15.136c-27.968-14.304-41.92-29.888-55.392-44.928-6.592-7.328-13.408-14.976-22.016-22.528-11.52-10.08-21.952-7.2-40.832-0.672-9.088 3.136-18.496 6.336-28.544 7.04-22.912 1.568-30.08-12.256-33.984-19.712-2.784-5.344-3.712-7.168-9.536-8.416a57.408 57.408 0 0 1-14.72-5.248" fill="#747575" p-id="17486"></path><path d="M824.832 729.792a14.752 14.752 0 0 1-14.016-19.424c8.256-24.704 11.488-62.944 0.224-92.48-8.864-23.232-1.472-36 3.36-44.544 3.424-5.888 4.256-7.296 1.504-13.92a10.08 10.08 0 0 0-1.024-1.952c-2.304-0.512-9.12 1.152-13.696 2.24-13.536 3.328-32.064 7.808-50.816-2.496-13.824-7.552-22.912-20.896-26.208-38.56-5.024-26.4 3.84-58.72 22.016-80.544l0.96-1.184c22.24-26.688 25.664-30.784 20.576-55.616-4.032-19.488 0.928-28.832 5.888-36.064l0.256-0.32a48.928 48.928 0 0 0-4.256-8.192c-23.168-37.76 0.032-67.776 0.992-69.024a14.752 14.752 0 0 1 23.264 18.176c-1.248 1.696-11.008 16.032 0.896 35.424 10.816 17.632 11.616 28.288 3.2 40.64-1.888 2.752-3.136 4.576-1.344 13.408 8 38.752-2.912 51.84-26.784 80.48l-0.992 1.184c-12.416 14.912-19.008 38.496-15.68 56.128 1.696 8.8 5.568 14.912 11.456 18.176 8.672 4.768 18.848 2.304 29.632-0.288 14.24-3.488 38.08-9.28 48.992 17.088 8.256 20 1.376 32-3.2 39.904-3.616 6.272-5.248 9.152-1.44 19.232 14.88 38.88 9.44 84.832 0.256 112.352a14.72 14.72 0 0 1-14.016 10.176M299.328 736.064c-4.768 0-14.176-1.824-20.384-14.624-15.872-32.864-27.52-41.728-30.368-42.24-12.32-0.448-43.456 2.976-54.368 4.32a14.72 14.72 0 1 1-3.648-29.28c4.256-0.544 42.112-5.184 59.264-4.544 6.464 0.256 25.312 0.992 50.72 48.992a155.52 155.52 0 0 0 8.064-19.936c6.112-18.432-1.024-37.248-21.312-55.904-15.104-13.952-20.288-27.904-20.8-39.168-6.592-0.992-12.512-1.312-15.296-0.672l-1.056 1.248c-7.52 9.12-21.536 26.08-54.4 9.216l-43.04-22.144a14.72 14.72 0 1 1 13.568-26.176c0.032 0 18.336 9.472 42.944 22.048 11.744 6.016 12.352 5.312 18.144-1.728l2.528-3.008c12.48-14.4 41.376-9.024 57.472-4.576 4.64 1.28 8.8 4.096 10.4 8.672a13.44 13.44 0 0 1-1.312 12.544c-0.544 1.728-2.176 9.984 10.88 21.984 28.736 26.496 39.136 57.376 29.28 86.976-13.92 41.792-27.296 47.328-36.096 47.936-0.352 0.064-0.768 0.064-1.184 0.064" fill="#747575" p-id="17487"></path></svg>