<?xml version="1.0" standalone="no"?><!DOCTYPE svg PUBLIC "-//W3C//DTD SVG 1.1//EN" "http://www.w3.org/Graphics/SVG/1.1/DTD/svg11.dtd"><svg t="1574679719821" class="icon" viewBox="0 0 1024 1024" version="1.1" xmlns="http://www.w3.org/2000/svg" p-id="1912" xmlns:xlink="http://www.w3.org/1999/xlink" width="64" height="64"><defs><style type="text/css"></style></defs><path d="M151.341949 901.12c0.446359-2.625641 0.630154-3.990974 0.708923-4.542359v-0.052513l0.682666-4.069743c0.787692-4.411077 1.68041-9.189744 2.78318-14.624821 1.260308-6.222769 2.599385-12.419282 3.938461-18.642051 3.045744-14.178462 6.222769-28.803282 8.349539-43.454359 2.783179-18.983385 6.564103-44.950974-1.39159-67.925333-3.544615-10.187487-9.189744-19.009641-14.651077-27.516718-1.969231-3.098256-4.043487-6.301538-5.933948-9.504821-7.876923-13.233231-15.149949-27.017846-21.609026-40.96l-1.654154-3.43959c-1.339077-2.756923-2.730667-5.618872-3.597128-8.297025l-0.157539 0.026256-0.105025-0.262564a222.181744 222.181744 0 0 0-1.706667-4.804923 453.106872 453.106872 0 0 1-20.296205-66.376205c-1.837949-8.086974-3.413333-16.331487-4.75241-24.523487l-0.577641-3.203282a132.384821 132.384821 0 0 1-0.656411-3.675898c0-0.787692-0.131282-1.627897-0.236307-2.625641l-0.315077-2.730667a467.049026 467.049026 0 0 1-3.098257-52.985435 467.60041 467.60041 0 0 1 3.360821-55.059693 42.535385 42.535385 0 0 0 0.551385-4.096v-0.052513l1.444102-8.927179A449.010872 449.010872 0 0 1 118.941538 336.082051a10.423795 10.423795 0 0 0 0.210052-0.393846h0.026256l0.131282-0.315077 0.393846-0.945231c0.630154-1.522872 1.575385-3.859692 2.021744-4.857435a449.824821 449.824821 0 0 1 52.670359-88.825436l0.183795-0.236308a480.728615 480.728615 0 0 1 49.309538-53.221744c8.113231-7.430564 17.014154-15.018667 27.149128-23.079384l3.859693-2.888205a491.966359 491.966359 0 0 1 21.477743-14.966154c20.506256-13.443282 42.246564-25.311179 64.59077-35.288616l6.879179-2.888205 4.201026-1.706666a446.09641 446.09641 0 0 1 52.565333-17.066667 458.568205 458.568205 0 0 1 46.998974-9.504821c0.735179-0.131282 1.470359-0.210051 2.231795-0.315077l0.577641-0.078769a465.972513 465.972513 0 0 1 95.993436-1.837948c3.282051 0.262564 6.642872 0.65641 9.924923 1.050256a566.455795 566.455795 0 0 0 5.723898 0.682667v0.026256h0.315077l0.761436 0.131282c1.522872 0.131282 4.699897 0.446359 5.697641 0.603898a439.873641 439.873641 0 0 1 46.053743 9.50482 455.601231 455.601231 0 0 1 54.166975 17.77559c1.102769 0.446359 3.597128 1.575385 5.093743 2.258051a11.841641 11.841641 0 0 0 0.65641 0.262564l0.315077 0.157539v-0.026257l0.708923 0.210051 0.105026 0.052513c1.102769 0.472615 2.231795 0.945231 3.308308 1.444103a457.728 457.728 0 0 1 85.832205 50.517333c0.997744 0.918974 2.258051 1.837949 3.649641 2.809436 9.898667 7.929436 18.405744 15.176205 25.993846 22.16041a478.391795 478.391795 0 0 1 49.467077 53.379282l0.787692 1.024 1.654154 2.205539a452.135385 452.135385 0 0 1 50.254769 85.64841l2.520616 5.828923a426.587897 426.587897 0 0 1 8.533333 22.554257 448.853333 448.853333 0 0 1 19.902359 81.368615c0.210051 2.258051 0.36759 3.833436 0.630154 4.988718a461.036308 461.036308 0 0 1 3.045743 55.427282A457.465436 457.465436 0 0 1 932.233846 551.384615l-0.052513 0.393847c-0.498872 2.756923-0.892718 5.513846-1.31282 8.297025a277.792821 277.792821 0 0 1-1.365334 8.55959 448.196923 448.196923 0 0 1-26.125128 89.875692l-0.28882 0.708923a283.490462 283.490462 0 0 1-4.411077 9.872411 450.638769 450.638769 0 0 1-49.51959 82.760205l-0.131282 0.131282h-0.052513l-0.236307 0.315077-0.787693 0.997743c-0.997744 1.312821-2.363077 3.124513-2.966974 3.859693a458.568205 458.568205 0 0 1-70.708513 70.340923l-3.518359 2.70441c-9.137231 6.642872-18.563282 13.495795-28.199385 19.692308-20.401231 13.075692-42.010256 24.628513-64.170666 34.290871l-3.72841 1.575385a500.867282 500.867282 0 0 1-24.94359 9.242256 456.520205 456.520205 0 0 1-79.399385 19.035898h-0.262564v-0.026257l-0.36759 0.052513-1.286564 0.157539-5.172513 0.735179a469.727179 469.727179 0 0 1-59.444512 2.835693l-1.732923-0.026257c-16.410256-0.262564-33.371897-0.525128-49.125744-3.544615l-0.498872-0.105026a456.914051 456.914051 0 0 1-43.769436-8.664615 362.86359 362.86359 0 0 1-23.158154-6.852923 424.30359 424.30359 0 0 0-20.427487-6.196513c-19.718564-5.251282-40.172308-2.520615-61.124923 1.024-21.87159 3.675897-43.638154 9.294769-64.669538 14.70359-19.613538 5.041231-39.909744 10.266256-60.074667 13.889641l-7.955692 1.31282c-3.413333 0.393846-7.483077 0.787692-11.526564 0.971487a103.030154 103.030154 0 0 1-9.163488 0.052513 147.114667 147.114667 0 0 1 0.787693-23.210667m797.144615-641.601641c-51.620103-94.024205-133.48759-169.61641-230.478769-212.781948C613.244718 0.105026 495.300923-10.161231 385.942974 17.854359 281.258667 44.662154 187.286974 105.550769 121.304615 189.308718 51.803897 277.582769 13.390769 386.835692 13.128205 496.955077a510.162051 510.162051 0 0 0 11.158974 104.395487c6.879179 32.295385 17.591795 64.590769 32.873026 98.802872a461.062564 461.062564 0 0 0 34.947282 64.223179l1.312821 1.969231c0.918974 1.339077 1.759179 2.625641 2.520615 3.885949 0.315077 0.997744 0.630154 2.021744 0.892718 3.177026l0.157538 2.599384c0.131282 1.890462 0.262564 4.096 0.236308 6.275282-0.052513 4.411077-0.36759 9.189744-0.971487 14.651077l-0.157538 1.365333-0.157539 0.971488-0.787692 5.014974c-2.021744 12.025436-4.647385 24.234667-7.194257 35.997538-1.969231 9.242256-4.017231 18.773333-5.77641 28.251898-4.279795 22.843077-8.060718 47.235282-3.597128 72.310154a68.424205 68.424205 0 0 0 46.158769 53.53682c9.216 2.966974 18.615795 4.069744 28.30441 4.069744 11.657846 0 23.735795-1.601641 36.548923-3.544616 21.188923-3.229538 42.246564-8.533333 62.595283-13.679589l11.027692-2.809436c17.670564-4.489846 35.971282-9.189744 54.166974-12.550564 2.625641-0.472615 5.225026-0.945231 7.981949-1.365334l0.315077-0.052512c1.129026-0.105026 2.179282-0.210051 3.098256-0.341334l1.732923-0.157538a96.991179 96.991179 0 0 1 14.020923-0.420103l0.236308 0.052513 2.100513 0.525128 10.765128 3.387077c11.762872 3.702154 23.972103 7.53559 36.365128 10.502564 17.77559 4.201026 36.680205 7.483077 59.497026 10.266257 31.717744 3.885949 63.960615 4.568615 95.809641 2.021743 110.880821-8.927179 216.982974-54.63959 298.797949-128.761436 80.318359-72.809026 134.721641-170.797949 153.206154-275.902359 19.744821-112.246154 0.997744-228.036923-52.827898-326.104615" p-id="1913" fill="#dbdbdb"></path><path d="M742.4 551.542154a52.512821 52.512821 0 1 0 52.434051-90.952205 52.512821 52.512821 0 0 0-52.434051 90.952205M569.606564 506.039795c0-28.960821-23.552-52.512821-52.51282-52.512821-28.934564 0-52.512821 23.552-52.512821 52.512821s23.578256 52.512821 52.512821 52.51282c28.960821 0 52.512821-23.552 52.51282-52.51282zM265.531077 558.552615c28.960821 0 52.512821-23.552 52.51282-52.51282s-23.552-52.512821-52.51282-52.512821c-28.934564 0-52.512821 23.552-52.512821 52.512821s23.578256 52.512821 52.512821 52.51282" p-id="1914" fill="#dbdbdb"></path></svg>