<?xml version="1.0" standalone="no"?><!DOCTYPE svg PUBLIC "-//W3C//DTD SVG 1.1//EN" "http://www.w3.org/Graphics/SVG/1.1/DTD/svg11.dtd"><svg t="1573111155665" class="icon" viewBox="0 0 1024 1024" version="1.1" xmlns="http://www.w3.org/2000/svg" p-id="940" xmlns:xlink="http://www.w3.org/1999/xlink" width="64" height="64"><defs><style type="text/css"></style></defs><path d="M767.615068 512.729872c-68.427972 0-132.766662-26.645316-181.158156-75.046808-48.401492-48.391494-75.046808-112.730184-75.046808-181.158156s26.645316-132.766662 75.046808-181.158156C634.848406 26.975258 699.187096 0.319944 767.615068 0.319944s132.766662 26.655314 181.158155 75.046808c48.391494 48.391494 75.046808 112.730184 75.046809 181.158156s-26.655314 132.766662-75.046809 181.158156c-48.391494 48.401492-112.730184 75.046808-181.158155 75.046808z m0-439.212795c-100.902263 0-183.007831 82.105567-183.007831 183.007831 0 100.902263 82.095569 183.007831 183.007831 183.00783 100.902263 0 183.007831-82.095569 183.00783-183.00783 0-100.902263-82.105567-183.007831-183.00783-183.007831z m0 0" fill="#C9C9C9" p-id="941"></path><path d="M742.249526 357.057236v-41.552696h-49.591282c-10.728114 0-16.077174-4.899139-16.077174-14.747407 0.879845-8.038587 6.238903-12.947724 16.077174-14.747408h49.591282v-22.785995h-49.591282c-10.728114 0-16.077174-4.889141-16.077174-14.747407 0.879845-8.038587 6.238903-12.947724 16.077174-14.73741h28.145052l-42.89246-60.319397c-4.479213-3.549376-6.248902-8.47851-5.359058-14.737409 0.879845-15.18733 9.378351-23.66584 25.475522-25.475522 8.038587 0.90984 14.747408 4.489211 20.106466 10.728114l49.591282 71.037513 49.591283-71.037513c4.459216-6.238903 11.168037-9.828272 20.116464-10.728114 15.18733 1.789685 23.66584 10.278193 25.475522 25.475522 0 6.2589-1.799684 11.188033-5.369056 14.737409l-42.892461 60.319397h28.145053c8.928431 1.789685 14.287489 6.698822 16.087172 14.73741-0.90984 9.848269-6.2589 14.747408-16.087172 14.747407h-49.591283v22.785995h49.591283c8.928431 1.789685 14.287489 6.698822 16.087172 14.747408-0.90984 9.848269-6.2589 14.747408-16.087172 14.747407h-49.591283v41.552696c-0.90984 15.197329-9.378351 22.785995-25.475522 22.785995-16.977016 0-25.475522-7.588666-25.475522-22.785995zM36.743541 1024c-20.216446 0-36.603566-16.387119-36.603566-36.603566V182.177977c0-20.216446 16.387119-36.593568 36.603566-36.593568 20.206448 0 36.593568 16.387119 36.593568 36.593568v805.218457c0 20.216446-16.387119 36.603566-36.593568 36.603566z m0 0" fill="#C9C9C9" p-id="942"></path><path d="M0.139975 987.396434c0-20.206448 16.387119-36.593568 36.603566-36.593567h805.218458c20.216446 0 36.593568 16.387119 36.593567 36.593567 0 20.216446-16.387119 36.603566-36.593567 36.603566H36.743541c-20.216446 0-36.603566-16.387119-36.603566-36.603566z m219.611397-109.790701h-73.207132V694.597903c0-20.13646 16.477104-36.603566 36.603566-36.603566s36.603566 16.467105 36.603566 36.603566v183.00783z m219.601398 0h-73.197133V328.59224c0-20.13646 16.467105-36.603566 36.603565-36.603566 20.126462 0 36.593568 16.467105 36.593568 36.603566v549.013493z m219.601398 0h-73.197133V548.193638c0-20.126462 16.467105-36.593568 36.593567-36.593568 20.13646 0 36.603566 16.467105 36.603566 36.593568v329.412095z m0 0" fill="#C9C9C9" p-id="943"></path></svg>