<?xml version="1.0" standalone="no"?><!DOCTYPE svg PUBLIC "-//W3C//DTD SVG 1.1//EN" "http://www.w3.org/Graphics/SVG/1.1/DTD/svg11.dtd"><svg t="1572942022599" class="icon" viewBox="0 0 1344 1024" version="1.1" xmlns="http://www.w3.org/2000/svg" p-id="16242" xmlns:xlink="http://www.w3.org/1999/xlink" width="84" height="64"><defs><style type="text/css"></style></defs><path d="M1189.060827 0H155.717762a155.717762 155.717762 0 0 0-155.717762 155.717762v712.564476a155.717762 155.717762 0 0 0 155.717762 155.717762h1033.343065a155.717762 155.717762 0 0 0 155.717762-155.717762V155.717762a155.717762 155.717762 0 0 0-155.717762-155.717762z m93.430657 868.282238a93.430657 93.430657 0 0 1-93.430657 93.430657H155.717762a93.430657 93.430657 0 0 1-93.430657-93.430657V155.717762a93.430657 93.430657 0 0 1 93.430657-93.430657h1033.343065a93.430657 93.430657 0 0 1 93.430657 93.430657z" p-id="16243"></path><path d="M707.270073 322.958637h213.333333a31.143552 31.143552 0 0 0 0-62.287104h-213.333333a31.143552 31.143552 0 0 0 0 62.287104zM707.270073 540.963504h189.352798a31.143552 31.143552 0 0 0 0-62.287105h-189.352798a31.143552 31.143552 0 0 0 0 62.287105zM1133.625304 696.681265H707.270073a31.143552 31.143552 0 0 0 0 62.287105H1133.625304a31.143552 31.143552 0 0 0 0-62.287105zM556.223844 373.722628l-104.953771-15.260341L404.86618 262.851582a31.143552 31.143552 0 0 0-55.746959 0l-47.649635 94.987834-104.642335 15.883212a31.143552 31.143552 0 0 0-17.44039 52.944039l75.990268 73.498783-18.06326 104.642336a31.143552 31.143552 0 0 0 45.469586 31.143552l93.430657-49.206812 93.430657 49.206812a31.143552 31.143552 0 0 0 14.637469 3.425791 31.143552 31.143552 0 0 0 18.063261-5.917275 31.143552 31.143552 0 0 0 12.457421-31.143552L498.296837 500.16545l75.990268-74.121654a31.143552 31.143552 0 0 0-17.44039-52.944039z m-113.985401 93.430657a31.143552 31.143552 0 0 0-8.720195 27.406326l9.965937 58.549878-52.632603-27.717762a31.143552 31.143552 0 0 0-28.963504 0l-52.321168 27.717762 9.965937-58.549878A31.143552 31.143552 0 0 0 311.435523 467.153285l-43.289538-41.420925 58.549879-8.720195a31.143552 31.143552 0 0 0 23.6691-16.817518l26.160583-53.255474 26.160584 53.255474a31.143552 31.143552 0 0 0 23.357665 16.817518l58.861313 8.720195z" p-id="16244"></path></svg>