<?xml version="1.0" standalone="no"?><!DOCTYPE svg PUBLIC "-//W3C//DTD SVG 1.1//EN" "http://www.w3.org/Graphics/SVG/1.1/DTD/svg11.dtd"><svg t="1572942006678" class="icon" viewBox="0 0 1344 1024" version="1.1" xmlns="http://www.w3.org/2000/svg" p-id="16129" xmlns:xlink="http://www.w3.org/1999/xlink" width="84" height="64"><defs><style type="text/css"></style></defs><path d="M1189.060827 0H155.717762a155.717762 155.717762 0 0 0-155.717762 155.717762v712.564476a155.717762 155.717762 0 0 0 155.717762 155.717762h1033.343065a155.717762 155.717762 0 0 0 155.717762-155.717762V155.717762a155.717762 155.717762 0 0 0-155.717762-155.717762z m93.430657 868.282238a93.430657 93.430657 0 0 1-93.430657 93.430657H155.717762a93.430657 93.430657 0 0 1-93.430657-93.430657V155.717762a93.430657 93.430657 0 0 1 93.430657-93.430657h1033.343065a93.430657 93.430657 0 0 1 93.430657 93.430657z" p-id="16130"></path><path d="M525.391727 262.851582h-162.880778a31.143552 31.143552 0 0 0 0 62.287104h162.880778a31.143552 31.143552 0 0 0 0-62.287104zM525.391727 480.856448h-144.506082a31.143552 31.143552 0 0 0 0 62.287104h144.506082a31.143552 31.143552 0 0 0 0-62.287104zM525.391727 698.861314H199.318735a31.143552 31.143552 0 0 0 0 62.287104h326.072992a31.143552 31.143552 0 0 0 0-62.287104zM1018.394161 498.296837a139.523114 139.523114 0 0 0 40.486618-98.413625A141.080292 141.080292 0 1 0 818.76399 498.296837a252.262774 252.262774 0 0 0-151.669099 230.773723 31.143552 31.143552 0 0 0 62.287104 0 189.352798 189.352798 0 0 1 378.394161 0 31.143552 31.143552 0 1 0 62.287104 0A252.262774 252.262774 0 0 0 1018.394161 498.296837zM840.875912 399.883212a78.793187 78.793187 0 1 1 78.793188 78.793187A78.793187 78.793187 0 0 1 840.875912 399.883212z" p-id="16131"></path></svg>