<?xml version="1.0" standalone="no"?><!DOCTYPE svg PUBLIC "-//W3C//DTD SVG 1.1//EN" "http://www.w3.org/Graphics/SVG/1.1/DTD/svg11.dtd"><svg t="1572942218717" class="icon" viewBox="0 0 1117 1024" version="1.1" xmlns="http://www.w3.org/2000/svg" p-id="16806" xmlns:xlink="http://www.w3.org/1999/xlink" width="69.8125" height="64"><defs><style type="text/css"></style></defs><path d="M1077.744485 937.95297H76.582788V43.03903c0-23.272727-17.128727-42.170182-38.291394-42.170182C17.128727 0.868848 0 19.735273 0 43.03903v931.902061c0 19.207758 11.667394 35.374545 27.61697 40.494545 6.019879 4.313212 13.187879 6.826667 20.883394 6.826667h1029.244121c21.131636 0 38.291394-18.897455 38.291394-42.170182s-17.159758-42.139152-38.291394-42.139151" fill="#333333" p-id="16807"></path><path d="M122.259394 715.869091h99.390061c11.170909 0 20.883394-7.012848 25.786181-17.283879l61.471031-96.193939 95.821575 217.274182c5.057939 11.481212 15.422061 18.152727 26.220606 18.152727 0.651636 0 1.303273 0 1.95491-0.093091h0.186181c12.132848 0 23.489939-8.471273 27.61697-21.907394l152.203636-495.026424 89.863758 302.731636c3.568485 11.977697 12.815515 20.107636 23.334788 21.907394a26.624 26.624 0 0 0 10.922667 2.358303h154.68606c11.791515 19.48703 35.157333 32.79903 62.060606 32.79903 38.787879 0 70.221576-27.523879 70.221576-61.47103s-31.433697-61.44-70.190545-61.44c-23.365818 0-44.06303 9.960727-56.785455 25.320727H752.174545l-110.157575-371.215515c-2.07903-10.736485-9.060848-20.045576-19.114667-23.862303-15.266909-5.771636-31.837091 3.258182-37.050182 20.200727L427.380364 723.626667l-86.264243-195.646061a33.76097 33.76097 0 0 0-2.978909-5.337212 31.185455 31.185455 0 0 0-8.005818-9.495273c-13.156848-10.333091-31.340606-6.888727-40.680727 7.695515l-83.161212 130.203152H122.259394c-16.135758 0-29.199515 14.522182-29.199515 32.395636 0 17.904485 13.063758 32.395636 29.168485 32.395637" fill="#333333" p-id="16808"></path></svg>