<?xml version="1.0" standalone="no"?><!DOCTYPE svg PUBLIC "-//W3C//DTD SVG 1.1//EN" "http://www.w3.org/Graphics/SVG/1.1/DTD/svg11.dtd"><svg t="1573111536294" class="icon" viewBox="0 0 1024 1024" version="1.1" xmlns="http://www.w3.org/2000/svg" p-id="1074" xmlns:xlink="http://www.w3.org/1999/xlink" width="64" height="64"><defs><style type="text/css"></style></defs><path d="M832.212372 351.99375H508.50205c-19.778411 0-35.95893-16.460355-35.95893-36.568573 0-20.118212 16.180519-36.578567 35.95893-36.578566h323.710322c19.778411 0 35.95893 16.460355 35.95893 36.578566 0 20.118212-16.180519 36.568573-35.95893 36.568573z m0 118.860354H508.50205c-19.778411 0-35.95893-16.460355-35.95893-36.578567 0-20.108218 16.180519-36.578567 35.95893-36.578566h323.710322c19.778411 0 35.95893 16.460355 35.95893 36.578566 0 20.118212-16.180519 36.578567-35.95893 36.578567zM508.492055 1023.99999c-58.745578 0-114.542884-12.992387-157.097948-36.598555-22.546789-12.502674-40.576224-27.49389-53.5886-44.573882-15.12114-19.808393-23.096467-42.335194-23.096467-65.121842 0-34.529767 18.239313-67.610384 51.3699-93.145422l43.464532 58.285848c-8.554987 6.586141-22.896584 19.888346-22.896584 34.84958 0 14.861292 14.661409 31.861331 39.197033 45.473355 31.701425 17.589693 76.415225 27.673785 122.658129 27.673784 46.242904 0 90.956704-10.084091 122.668123-27.673784 24.535623-13.612024 39.197033-30.612063 39.197032-45.473355 0-14.961234-14.341597-28.273433-22.896584-34.84958l43.464532-58.285848c33.130587 25.525044 51.3699 58.615654 51.3699 93.145422 0 22.786648-7.985321 45.313449-23.086472 65.121842-13.012375 17.079992-31.051805 32.071208-53.5886 44.573882-42.585047 23.596174-98.382353 36.598555-157.137926 36.598555z m0 0" fill="#C9C9C9" p-id="1075"></path><path d="M508.492055 895.994994c-58.745578 0-114.542884-12.992387-157.097948-36.588561-22.546789-12.502674-40.576224-27.503884-53.5886-44.573882-15.12114-19.808393-23.096467-42.3252-23.096467-65.121842 0-34.529767 18.239313-67.610384 51.3699-93.145422l43.464532 58.275854c-8.554987 6.586141-22.896584 19.888346-22.896584 34.859574 0 14.851298 14.661409 31.861331 39.197033 45.473355 31.701425 17.589693 76.415225 27.66379 122.658129 27.66379 46.242904 0 90.956704-10.074097 122.668123-27.66379 24.535623-13.612024 39.197033-30.622057 39.197032-45.473355 0-14.971228-14.341597-28.273433-22.896584-34.859574l43.464532-58.275854c33.130587 25.525044 51.3699 58.615654 51.3699 93.145422 0 22.786648-7.985321 45.313449-23.086472 65.121842-13.012375 17.079992-31.051805 32.071208-53.5886 44.573882-42.585047 23.596174-98.382353 36.588561-157.137926 36.588561z m0 0" fill="#C9C9C9" p-id="1076"></path><path d="M508.492055 767.999993c-58.065976 0-113.213663-11.183447-155.299003-31.491548-50.610345-24.4057-78.484013-60.114776-78.484012-100.511106 0-40.39633 27.873668-76.095412 78.484012-100.511106 42.08534-20.308101 97.233027-31.481553 155.299003-31.481553 58.065976 0 113.223657 11.173453 155.308998 31.481553 50.610345 24.415694 78.484013 60.114776 78.484012 100.511106 0 40.39633-27.873668 76.105406-78.484012 100.511106-42.08534 20.318095-97.243021 31.491548-155.308998 31.491548z m0-190.858168c-46.922506 0-92.285925 8.904782-124.457074 24.425688-25.824868 12.452703-37.398087 26.274604-37.398087 34.429826 0 8.155221 11.573219 21.977123 37.398087 34.43982 32.171149 15.520906 77.534569 24.415694 124.457074 24.415694 46.9325 0 92.295919-8.904782 124.467069-24.415694 25.824868-12.452703 37.398087-26.274604 37.398087-34.43982 0-8.155221-11.573219-21.977123-37.398087-34.429826-32.171149-15.5309-77.534569-24.425688-124.467069-24.425688z m0 0" fill="#C9C9C9" p-id="1077"></path><path d="M40.906036 879.99437c-19.858364-0.009994-35.95893-16.380402-35.95893-36.578567V36.578567C4.947106 16.380402 21.057666 0 40.91603 0h611.451722c19.858364 0 35.95893 16.380402 35.95893 36.578567v59.42518c0 20.198165-16.100566 36.578567-35.95893 36.578567-19.858364 0-35.968924-16.380402-35.968924-36.578567V73.137145H76.884954v681.210847l118.280694-121.76865c6.756041-6.955924 15.980636-10.873629 25.595003-10.873629h12.922428c19.858364 0 35.95893 16.380402 35.95893 36.578567 0 19.468592-14.941245 35.369275-33.800195 36.498614L66.511033 869.130735c-6.766035 6.955924-15.980636 10.873629-25.604997 10.863635z m0 0" fill="#C9C9C9" p-id="1078"></path><path d="M976.088069 1023.99999c-9.444466 0-18.699043-3.777786-25.595003-10.873629L781.212256 838.848479h-11.952996c-19.858364 0-35.968924-16.380402-35.968924-36.568573 0-20.198165 16.11056-36.578567 35.968924-36.578567h26.974194c9.624361 0 18.838961 3.917704 25.595003 10.873629l118.280694 121.76865v-681.200852H400.595277v262.286314c0 20.188171-16.11056 36.568573-35.968924 36.568573s-35.968924-16.380402-35.968924-36.568573V180.564199c0-20.188171 16.11056-36.568573 35.968924-36.568573h611.451722c19.858364 0 35.968924 16.380402 35.968924 36.568573V987.421423c0 14.841304-8.814835 28.203474-22.306929 33.830177a35.13941 35.13941 0 0 1-13.652001 2.74839z m0 0" fill="#C9C9C9" p-id="1079"></path></svg>