<?xml version="1.0" standalone="no"?><!DOCTYPE svg PUBLIC "-//W3C//DTD SVG 1.1//EN" "http://www.w3.org/Graphics/SVG/1.1/DTD/svg11.dtd"><svg t="1573111589202" class="icon" viewBox="0 0 1024 1024" version="1.1" xmlns="http://www.w3.org/2000/svg" p-id="1210" xmlns:xlink="http://www.w3.org/1999/xlink" width="64" height="64"><defs><style type="text/css"></style></defs><path d="M329.831779 548.514643H184.693196c-19.959805 0-36.289646 16.40984-36.289645 36.469644s16.329841 36.469644 36.289645 36.469644h145.148583c19.949805 0 36.289646-16.40984 36.289645-36.469644-0.01-20.059804-16.33984-36.469644-36.299645-36.469644zM184.693196 256.757493h653.143622c19.959805 0 36.289646-16.40984 36.289646-36.469644s-16.329841-36.469644-36.289646-36.469644H184.693196c-19.959805 0-36.289646 16.40984-36.289645 36.469644s16.329841 36.469644 36.289645 36.469644zM583.839298 402.636068c0-20.059804-16.329841-36.469644-36.279645-36.469644H184.693196c-19.959805 0-36.289646 16.40984-36.289645 36.469644s16.329841 36.469644 36.289645 36.469644h362.866457c19.949805 0 36.279646-16.40984 36.279645-36.469644z" fill="#C9C9C9" p-id="1211"></path><path d="M61.244402 839.041806l372.466363 1.05999c-7.849923-23.229773-13.059872-47.669534-15.299851-72.979287l-343.366647-0.969991L76.984248 73.299284l870.871496 2.469976-1.209989 436.005742c30.779699 29.66971 55.549458 65.57936 72.279295 105.728968l1.549984-555.204578c0.05-15.829845-6.039941-30.7197-17.149832-41.949591-11.099892-11.21989-25.899747-17.41983-41.649593-17.469829L63.584379 0.329997C31.074697 0.209998 4.534956 26.739739 4.444957 59.41942L2.434976 779.622387c-0.04 15.829845 6.049941 30.7297 17.159833 41.94959 11.109892 11.22989 25.899747 17.42983 41.649593 17.469829zM438.690716 854.601654v131.558716c0 20.059804 16.329841 36.469644 36.279646 36.469643h72.579291c10.329899 0 19.669808-4.399957 26.309743-11.419888-60.909405-35.179656-108.918936-90.359118-135.16868-156.608471z" fill="#C9C9C9" p-id="1212"></path><path d="M882.436382 717.272995h73.149286c-5.299948-45.779553-24.979756-88.339137-54.189471-122.8288l-49.12952 49.13952-41.029599-41.029599 47.669534-47.679535c-29.579711-21.619789-64.039375-36.569643-100.809015-42.269587v72.039297h-58.029434v-73.159286c-46.289548 5.359948-89.279128 25.419752-123.978789 55.169461l51.439498 51.389498-41.0296 41.0296-49.739514-49.689515c-24.329762 33.729671-40.019609 73.70928-43.289577 116.168866h73.959278v58.029433h-70.579311c7.639925 39.279616 25.819748 75.649261 51.299499 105.868966l45.389557-45.349557 41.029599 40.9496-44.03957 44.03957c31.879689 23.409771 69.469322 39.059619 109.52893 43.699573v-73.149286h58.029434v72.029297c43.979571-6.809933 84.649173-26.849738 117.618851-55.709456l-45.749553-45.749553 40.9496-41.029599 43.659574 43.619574c20.339801-28.829718 34.409664-62.089394 39.88961-97.499048h-72.029296v-58.029434zM724.927921 891.361295c-82.89919 0-149.218543-66.319352-149.218543-149.218542s66.319352-149.218543 149.218543-149.218543 149.218543 66.319352 149.218542 149.218543-66.329352 149.218543-149.218542 149.218542z" fill="#C9C9C9" p-id="1213"></path><path d="M875.696448 915.961055l42.129589 42.129589 41.029599-41.0396-44.299567-44.249567a244.74861 244.74861 0 0 1-38.859621 43.159578zM901.386197 594.444195l38.739622-38.739622-41.029599-41.029599-40.199608 40.199607a246.325594 246.325594 0 0 1 42.489585 39.569614zM576.079374 566.654466l-36.519643-36.479643-41.029599 41.029599 38.219626 38.179627a246.377594 246.377594 0 0 1 39.329616-42.729583zM957.035654 742.142753c0 11.209891-0.889991 22.279782-2.569975 33.159676h52.319489v-58.029434h-51.1995c0.949991 8.19992 1.449986 16.499839 1.449986 24.869758zM758.087597 512.604994V460.295505h-58.029434v51.1895c8.19992-0.949991 16.489839-1.449986 24.869758-1.449986 11.209891 0 22.279782 0.889991 33.159676 2.569975zM700.058163 972.8005v51.1995h58.029434v-52.319489a215.889892 215.889892 0 0 1-33.159676 2.569975c-8.379918 0-16.669837-0.499995-24.869758-1.449986zM548.139647 889.461314l-42.559584 42.519585 41.119598 40.9496 43.829572-43.829572a246.137596 246.137596 0 0 1-42.389586-39.639613zM493.460181 725.562914h-50.379508v58.029434h53.759475c-2.629974-13.519868-4.019961-27.379733-4.019961-41.449595-0.01-5.559946 0.219998-11.089892 0.639994-16.579839z" fill="#C9C9C9" p-id="1214"></path><path d="M758.087597 584.644291v-72.039297a215.889892 215.889892 0 0 0-33.159676-2.569975c-8.369918 0-16.669837 0.499995-24.869758 1.449986v73.159286h58.029434zM852.256677 643.583715l49.12952-49.13952a245.992598 245.992598 0 0 0-42.489585-39.579614l-47.669534 47.679535 41.029599 41.039599zM829.956895 870.221502l45.749553 45.749553c14.599857-12.779875 27.67973-27.299733 38.869621-43.159579l-43.659574-43.619574-40.9596 41.0296zM955.585668 717.272995h-73.149286v58.029434h72.029297c1.689983-10.879894 2.569975-21.949786 2.569975-33.159676 0-8.369918-0.499995-16.669837-1.449986-24.869758zM700.058163 899.651214v73.149286c8.19992 0.949991 16.489839 1.449986 24.869758 1.449986 11.209891 0 22.289782-0.889991 33.159676-2.569975v-72.029297h-58.029434zM627.518872 618.043964l-51.439498-51.389498c-14.729856 12.629877-27.979727 26.999736-39.329616 42.739583l49.739515 49.689515 41.029599-41.0396zM593.529204 844.101757l-45.389557 45.349557a246.137596 246.137596 0 0 0 42.389586 39.639613l44.03957-44.03957-41.039599-40.9496zM567.419459 725.562914h-73.959278c-0.419996 5.489946-0.649994 11.009892-0.649994 16.579839 0 14.069863 1.389986 27.929727 4.019961 41.449595h70.579311v-58.029434zM749.797678 699.073173a49.716514 49.716514 0 0 0-49.739515 0 49.722514 49.722514 0 0 0-24.869757 43.06958c0 17.769826 9.479907 34.189666 24.869757 43.079579a49.716514 49.716514 0 0 0 49.739515 0 49.739514 49.739514 0 0 0 0-86.149159zM497.760139 949.680726H243.652621c-12.469878 0-22.679779 10.2599-22.679779 22.789777v27.359733c0 12.529878 10.1999 22.789777 22.679779 22.789777h352.606556c-37.479634-17.659828-70.909308-42.559584-98.499038-72.939287z m0 0" fill="#C9C9C9" p-id="1215"></path></svg>