<?xml version="1.0" standalone="no"?><!DOCTYPE svg PUBLIC "-//W3C//DTD SVG 1.1//EN" "http://www.w3.org/Graphics/SVG/1.1/DTD/svg11.dtd"><svg t="1572942292931" class="icon" viewBox="0 0 1119 1024" version="1.1" xmlns="http://www.w3.org/2000/svg" p-id="17257" xmlns:xlink="http://www.w3.org/1999/xlink" width="69.9375" height="64"><defs><style type="text/css"></style></defs><path d="M641.278167 1013.361642c-41.831255 0-100.24569-20.509327-167.884678-44.259284-64.031771-22.48401-136.602578-47.963036-198.772086-55.770119-41.118854-5.160325-86.485232-7.776535-134.836849-7.776535-44.399809 0-81.73915 2.206854-105.243494 4.056897l-2.162864 0.175962-0.821155-0.019551c-11.884754-0.158854-21.593203-11.239561-21.593203-24.695752 0-13.176363 9.508048-24.237518 21.194845-24.659093l8.419284-0.306711v-0.383695l5.430377-0.373919c31.592477-2.165308 63.247274-3.250406 94.909403-3.250405 49.73243 0 96.681241 2.727408 139.547494 8.105241 66.327828 8.326415 141.023618 34.550835 206.927427 57.684926 61.568305 21.623752 119.716353 42.043876 154.740086 42.042654a84.681623 84.681623 0 0 0 2.985241-0.051322c58.320344-2.056554 221.370959-92.398282 279.27706-127.034654l0.353145-0.223619c65.484678-43.429575 106.975007-72.25432 116.821537-81.15261l0.223619-0.202845 0.244391-0.179628c16.270358-11.896974 29.582358-36.842005 22.719847-56.393317-6.091456-17.376229-25.257852-36.736916-43.025107-36.736917a22.777279 22.777279 0 0 0-7.182664 1.135198l-0.223618 0.069652-327.357403 93.743656-1.725403 2.052888c-16.67116 19.856802-40.181613 29.510263-71.87307 29.510262-41.887465 0-97.451074-16.261804-180.156792-52.727446l-5.154215-2.27284 0.041547-0.111198-7.80464-3.516792c-11.004945-4.83895-16.66505-18.978215-12.565384-31.502053 3.161203-9.682788 11.425298-16.188487 20.566759-16.188487 3.271179 0.004888 6.491036 0.830931 9.382186 2.404812l0.270052 0.145413 0.257833 0.114863c81.404334 36.58295 138.499055 54.364869 174.544344 54.362425 21.188735 0 35.980525-6.293079 43.966014-18.704496 7.79853-12.101041 10.936516-23.339379 9.321089-33.405862-2.617432-16.365671-16.919217-27.75431-17.52653-28.230873l-1.774282-1.402807c-34.935752-29.675227-97.696687-78.932315-159.603475-120.09516-79.617833-52.941289-137.917403-79.784019-173.278396-79.784019-7.284086 0-40.256153 6.434826-158.698005 89.215084-44.04422 30.792095-74.91452 55.531838-93.359961 70.31263l-0.157633 0.125861c-4.743637 3.801508-8.840859 7.084907-12.10104 9.620468l-0.672077 0.525442-0.564544 0.647637c-4.113107 4.722864-9.820869 7.433165-15.655714 7.433164-2.44758 0-4.876831-0.470453-7.220544-1.397918-11.402081-4.500468-17.510644-19.090635-13.333995-31.858864 1.500563-4.593337 4.157098-8.550033 7.683666-11.439962l6.067017-4.973365-0.19307-0.321375 4.257299-3.277289c18.980659-14.61094 57.908544-44.073547 105.363246-77.24968C256.261499 419.632267 293.005747 408.133652 312.860105 408.133652c44.408363 0 116.457394 32.897527 208.355895 95.131799 73.94673 50.0758 138.271771 103.993432 150.41558 114.292086l0.329928 0.268831c4.961146 3.816172 30.030816 24.628544 36.03307 59.383446 0.601203 3.425146 0.993451 7.022587 1.165747 10.676239l0.522997 11.233451 299.186406-85.677518 2.168974-0.22484 0.43746-0.094091a51.933174 51.933174 0 0 1 10.694568-1.099761c30.831198 0 64.596315 26.577566 80.2838 63.192286 6.073126 14.169814 21.860811 64.282272-29.87685 114.249317l-0.818711 0.801604c-4.758301 4.67032-17.422663 17.097623-126.242826 89.263962l-1.006892 0.632974c-80.861785 48.416382-234.707399 130.860601-299.021442 133.129775a135.759427 135.759427 0 0 1-4.209642 0.06843zM596.576535 214.282387c10.032267 2.864267 20.482444-2.952248 23.351599-12.99307 25.816286-90.487141 109.572888-153.685537 203.673355-153.685537 80.953432 0 154.250081 46.767962 189.584191 117.449623l-40.614186-13.910759c-9.870969-3.382377-20.610749 1.887924-23.988239 11.772335-3.377489 9.883189 1.88548 20.636411 11.756449 24.018787l78.979971 27.054129a18.885346 18.885346 0 0 0 19.11874-4.191313 18.942778 18.942778 0 0 0 5.165213-18.900009C1033.176897 84.256382 934.479427 9.775656 823.603933 9.775656 712.723551 9.775656 614.030969 84.256382 583.606683 190.899017a18.935446 18.935446 0 0 0 1.649642 14.382434 18.8939 18.8939 0 0 0 11.321432 9.002158z m430.690978 103.756372C1001.454893 408.527122 917.699513 471.727962 823.599045 471.727962c-80.953432 0-154.247637-46.767962-189.584191-117.449623l40.610521 13.908315a18.849909 18.849909 0 0 0 14.431312-0.904248 18.88779 18.88779 0 0 0 9.555704-10.866864 18.926893 18.926893 0 0 0-0.907914-14.445976 18.88779 18.88779 0 0 0-10.847312-9.567924l-78.979972-27.054129a18.859685 18.859685 0 0 0-19.119961 4.176649 18.945222 18.945222 0 0 0-5.156659 18.914673C614.024859 435.07536 712.712554 509.556086 823.595379 509.556086c110.880382 0 209.569298-74.480726 239.994807-181.12336a18.925671 18.925671 0 0 0-1.644754-14.383657 18.885346 18.885346 0 0 0-11.32632-9.000935c-10.031045-2.867933-20.484888 2.94736-23.351599 12.990625z" fill="#000000" p-id="17258"></path><path d="M826.039294 388.582339c10.459952 0 18.940334-8.480382 18.940334-18.942778v-3.895599c33.029499-6.506921 56.821002-29.726549 56.821002-58.168821 0-39.777146-45.519122-54.39053-69.971704-62.23916-38.381671-12.318549-43.670301-21.383026-43.670301-29.345298 0-10.434291 16.200706-22.099093 37.880669-22.099094 16.794578 0 30.904516 7.121566 41.918014 21.167962 6.461709 8.226215 18.36357 9.663236 26.595895 3.210081 8.228659-6.456821 9.668124-18.361126 3.216191-26.594673-14.135599-18.011647-32.147246-29.433279-52.7861-33.727236v-8.255542c0-10.459952-8.48527-18.942778-18.940335-18.942778-10.45873 0-18.940334 8.486492-18.940334 18.942778v8.13579c-33.029499 6.500811-56.821002 29.724105-56.821002 58.162712 0 42.95179 47.262854 58.128496 69.971704 65.41747C850.453995 291.100716 863.923628 299.174186 863.923628 307.571475c0 10.434291-16.200706 22.099093-37.880669 22.099093-19.066196 0-30.70778-5.779857-41.507436-20.618081a18.928115 18.928115 0 0 0-26.460258-4.15832 18.936668 18.936668 0 0 0-4.163208 26.460258c14.131933 19.4059 31.330979 30.639351 53.194234 34.57283v3.718416c0 10.45873 8.476716 18.936668 18.933003 18.936668z" fill="#000000" p-id="17259"></path></svg>