<?xml version="1.0" standalone="no"?><!DOCTYPE svg PUBLIC "-//W3C//DTD SVG 1.1//EN" "http://www.w3.org/Graphics/SVG/1.1/DTD/svg11.dtd"><svg t="1572942322147" class="icon" viewBox="0 0 1024 1024" version="1.1" xmlns="http://www.w3.org/2000/svg" p-id="17370" xmlns:xlink="http://www.w3.org/1999/xlink" width="64" height="64"><defs><style type="text/css"></style></defs><path d="M768 729.317333v56.533334h96c17.6736 0 32 14.3264 32 32 0 17.672533-14.3264 32-32 32h-96v77.866666c0 17.672533-14.3264 32-32 32-17.6736 0-32-14.327467-32-32v-77.866666h-96c-17.6736 0-32-14.327467-32-32 0-17.6736 14.3264-32 32-32h96v-56.533334h-96c-17.6736 0-32-14.327467-32-32 0-17.6736 14.3264-32 32-32h77.412267l-52.650667-52.650666c-12.498133-12.498133-12.498133-32.759467 0-45.255467 12.496-12.497067 32.757333-12.497067 45.2544 0l56.926933 56.926933 56.926934-56.928c12.497067-12.496 32.757333-12.496 45.2544 0 12.497067 12.497067 12.497067 32.7584 0 45.255467l-52.650667 52.650667H864c17.6736 0 32 14.327467 32 32 0 17.674667-14.3264 32-32 32h-96z m58.181333-313.025066V181.333333c0-29.454933-26.048-53.333333-58.181333-53.333333H256c-32.133333 0-58.181333 23.8784-58.181333 53.333333v661.333334c0 29.454933 26.048 53.333333 58.181333 53.333333h191.850667c17.672533 0 32 14.3264 32 32 0 17.6736-14.327467 32-32 32H244.362667C180.0992 960 128 912.2432 128 853.333333V170.666667c0-58.909867 52.098133-106.666667 116.362667-106.666667h535.274666C843.9008 64 896 111.7568 896 170.666667v245.6256C896 435.572267 880.3712 451.2 861.0912 451.2c-19.28 0-34.909867-15.6288-34.909867-34.9088zM288 256h320c17.6736 0 32 14.3264 32 32 0 17.6736-14.3264 32-32 32H288c-17.6736 0-32-14.3264-32-32 0-17.6736 14.3264-32 32-32z m0 192h192c17.6736 0 32 14.3264 32 32 0 17.6736-14.3264 32-32 32H288c-17.6736 0-32-14.3264-32-32 0-17.6736 14.3264-32 32-32z" p-id="17371"></path></svg>