<?xml version="1.0" standalone="no"?><!DOCTYPE svg PUBLIC "-//W3C//DTD SVG 1.1//EN" "http://www.w3.org/Graphics/SVG/1.1/DTD/svg11.dtd"><svg t="1573111671046" class="icon" viewBox="0 0 1024 1024" version="1.1" xmlns="http://www.w3.org/2000/svg" p-id="1447" xmlns:xlink="http://www.w3.org/1999/xlink" width="64" height="64"><defs><style type="text/css"></style></defs><path d="M211.176727 809.425455a34.909091 34.909091 0 0 1-34.909091-34.909091V367.522909a34.909091 34.909091 0 0 1 69.818182 0v406.993455a34.909091 34.909091 0 0 1-34.909091 34.909091z m329.821091-34.909091V90.298182a34.909091 34.909091 0 0 0-69.818182 0v684.218182a34.909091 34.909091 0 0 0 69.818182 0z m289.000727 0V367.522909a34.909091 34.909091 0 0 0-69.818181 0v406.993455a34.909091 34.909091 0 0 0 69.818181 0zM977.454545 933.701818a34.909091 34.909091 0 0 0-34.90909-34.909091H81.454545a34.909091 34.909091 0 0 0 0 69.818182h861.09091a34.909091 34.909091 0 0 0 34.90909-34.909091z" p-id="1448"></path></svg>