<?xml version="1.0" standalone="no"?><!DOCTYPE svg PUBLIC "-//W3C//DTD SVG 1.1//EN" "http://www.w3.org/Graphics/SVG/1.1/DTD/svg11.dtd"><svg t="1572942082400" class="icon" viewBox="0 0 1082 1024" version="1.1" xmlns="http://www.w3.org/2000/svg" p-id="16580" xmlns:xlink="http://www.w3.org/1999/xlink" width="67.625" height="64"><defs><style type="text/css"></style></defs><path d="M335.280917 619.773613c16.207691 14.488401 98.482491 87.316763 126.454763 101.20631 10.103245 5.022646 24.862096 10.837324 41.958409 17.675849 27.701823 10.914595 99.48702 39.292543 112.372038 57.180889-7.88169 20.380351-34.830116 29.26657-79.975973 26.658658a491.079522 491.079522 0 0 1-209.48296-67.86367 29.614292 29.614292 0 0 0-29.710881-1.835197 29.459749 29.459749 0 0 0-2.492005 51.230985 543.218447 543.218447 0 0 0 238.150676 77.271472c98.907484 6.085128 131.573999-36.568724 141.61929-73.291991 16.169055-59.054722-71.418158-93.633706-148.728265-124.155937-15.76338-6.258989-29.556338-11.648674-37.41871-15.570202a1116.669358 1116.669358 0 0 1-114.361779-93.170077c-2.607912-2.124965-64.888719-51.82984-173.571044-27.508644C95.159818 571.169857 9.755523 680.026043 6.181718 684.643013c-3.998799 5.177189-6.181718 11.513449-6.181718 18.042889v175.831234C0 894.763463 13.23274 907.957567 29.556338 907.957567c16.304281 0 29.53702-13.194104 29.53702-29.459749v-165.206406c19.704225-23.046216 83.511143-92.339409 153.982726-108.044836 79.106669-17.926981 121.702568 14.237269 122.204833 14.527037zM196.945664 405.557775l124.020712 0.135225a29.363159 29.363159 0 0 0 0-58.784272h-118.727616l-3.399945-0.115908c-20.824662-0.714761-64.135322-2.202237-86.099738-26.388207a71.147708 71.147708 0 0 1-14.681579-54.553659c5.215824-84.26454 96.357525-91.103065 106.634631-91.566695a29.556338 29.556338 0 0 0 26.523433-19.607636c1.390886-3.921527 35.235791-95.855261 127.671789-95.85526a128.695636 128.695636 0 0 1 125.237738 90.446257 29.363159 29.363159 0 1 0 54.804792-21.153065A187.01628 187.01628 0 0 0 358.887351 0.017772c-106.016459 0-157.440624 80.497556-175.406241 117.356048C127.884286 125.777093 45.590168 163.060578 39.485722 262.199877a127.961557 127.961557 0 0 0 29.788153 97.748411c38.713007 42.595899 101.051767 44.701546 127.671789 45.590169z" fill="#666666" p-id="16581"></path><path d="M387.149392 365.357292a121.837793 121.837793 0 0 0 28.62908 93.266666c37.013035 40.644794 96.58934 42.67317 122.030972 43.523157L880.237972 502.28234A107.194849 107.194849 0 0 0 985.211267 396.459059v-2.067012c0.598854-87.896299-67.148909-129.12063-115.656076-142.662455A182.244766 182.244766 0 0 0 692.178527 115.92498c-101.167675 0-150.254377 76.151036-167.601822 111.425463-53.162773 8.094187-131.593317 43.697017-137.427313 138.006849z m183.983375-101.805165c1.332933-3.824938 33.497183-90.542847 121.065078-90.542847 105.28238 0 124.754791 103.196051 125.527506 107.561889a28.590445 28.590445 0 0 0 24.089382 23.432574c3.53517 0.502265 86.679274 13.445236 86.138373 91.373515a49.550331 49.550331 0 0 1-47.715134 49.762828H542.870726l-3.245402-0.115907c-19.742861-0.676125-60.851284-2.067012-81.579357-24.746189a66.801187 66.801187 0 0 1-13.812275-51.404847c4.926056-79.415755 91.276926-85.848605 100.974496-86.312234a28.822259 28.822259 0 0 0 25.924579-19.0281z" fill="#1771B9" p-id="16582"></path><path d="M1054.94877 595.317192a59.44108 59.44108 0 0 0-34.482394-15.550884c-45.648122-3.882891-120.041232 46.633333-198.43314 102.983554-7.186247 5.177189-13.638415 9.716888-19.066736 13.599779a1166.625365 1166.625365 0 0 1-113.589064 66.820506 29.092709 29.092709 0 0 0-12.653203 39.234589 29.305206 29.305206 0 0 0 39.369815 12.614568 1204.1793 1204.1793 0 0 0 120.582132-71.0318c5.582864-3.882891 12.189575-8.673723 19.607636-13.986137 32.454018-23.316667 131.052416-95.04391 157.826981-92.532587a10.856642 10.856642 0 0 1 2.414734 1.71929c8.403273 8.499862 9.175987 21.867827 1.815879 31.25631-57.277479 78.816901-255.652665 295.119069-388.153921 295.119069H222.425932c-16.149738 0-29.247252 13.058879-29.247252 29.169981 0 16.072466 13.097514 29.131345 29.247252 29.131345h407.780875c168.973391 0 386.511902-251.808409 435.502015-319.189133a81.869124 81.869124 0 0 0-10.77937-109.35845z" fill="#666666" p-id="16583"></path></svg>