<?xml version="1.0" standalone="no"?><!DOCTYPE svg PUBLIC "-//W3C//DTD SVG 1.1//EN" "http://www.w3.org/Graphics/SVG/1.1/DTD/svg11.dtd"><svg t="1572942608544" class="icon" viewBox="0 0 1024 1024" version="1.1" xmlns="http://www.w3.org/2000/svg" p-id="18660" xmlns:xlink="http://www.w3.org/1999/xlink" width="64" height="64"><defs><style type="text/css"></style></defs><path d="M759.21 951.61h-51.45a49.19 49.19 0 0 1-49-49.27v-6.47a180.13 180.13 0 0 1-26.92-16l-16.73 9.74c-22.59 13.07-54.11 4.67-67.16-18l-25.7-45a49.43 49.43 0 0 1 17.91-67.19l16.54-9.62q-0.78-8-0.8-16.05c0-5.21 0.27-10.53 0.8-16l-16.54-9.62a49.46 49.46 0 0 1-17.91-67.22L547.9 596c13.05-22.74 44.53-31.3 67.2-18.06l16.69 9.73a174.37 174.37 0 0 1 26.92-16v-6.47a49.21 49.21 0 0 1 49-49.29h51.45a49.24 49.24 0 0 1 49.14 49.29v6.47a176.28 176.28 0 0 1 26.92 16l16.78-9.76c22.39-13.12 54.07-4.68 67.15 18l25.71 45a49.41 49.41 0 0 1-18 67.18l-16.47 9.62c0.54 5.48 0.81 10.8 0.81 16s-0.27 10.57-0.81 16.05l16.51 9.62a49.47 49.47 0 0 1 17.95 67.22l-25.75 44.97a48.93 48.93 0 0 1-67.1 18.07l-16.73-9.74a180.13 180.13 0 0 1-26.92 16v6.47a49.23 49.23 0 0 1-49.09 49.27z m-122.9-128.44L648.94 834a131.36 131.36 0 0 0 41 24.34l15.49 5.51v38.49l53.8 2.58a2.5 2.5 0 0 0 2.39-2.58v-38.49l15.48-5.51a131.4 131.4 0 0 0 41-24.34l12.63-10.83 44.75 26.08 28.82-45.81L859 774l3-16.16a120.43 120.43 0 0 0 0-48.14l-3-16.16 44.34-25.82-24.79-48.56-47.85 25.14-12.59-10.76c-12.93-11-26.69-19.21-41-24.3l-15.52-5.55v-38.48l-53.84-2.59-2.35 41.07-15.52 5.55c-14.3 5.09-28.06 13.27-41 24.3l-12.57 10.76-44.75-26-28.82 45.82 45.17 29.4-3 16.12a122.65 122.65 0 0 0 0 48.29l3 16.12-44.3 25.78 24.83 48.55z m97.19-7.76c-44.75 0-81.18-36.62-81.18-81.64s36.42-81.64 81.18-81.64 81.14 36.62 81.14 81.64-36.39 81.64-81.14 81.64z m0-116.58c-19 0-34.49 15.66-34.49 34.94s15.48 35 34.49 35 34.45-15.67 34.45-35-15.47-34.94-34.45-34.94z m0 0" fill="#2FA182" p-id="18661"></path><path d="M817.63 203.94c-68.38-69.86-137.82-100.14-226-124.2-48.23-10.79-134.06-8.87-180-0.09A440.16 440.16 0 0 0 226.36 169l-27.94-28 1.07-1.08a38.93 38.93 0 0 0-55.06-55.06l-55.07 55.07a38.8 38.8 0 0 0 53.77 55.93l27.52 27.51C109 296.14 71.76 390 71.76 494.77c0 226 171.38 412.13 389.37 432.13v-78.25C295.71 830.28 164.84 696.27 151 529.54h75.81v-58.41h-75.7c14.12-169.69 149.46-305.25 319.06-319.68v76.33h58.41v-76.5C695.6 164.81 830 295.78 848.35 461.4h78.77a435 435 0 0 0-109.49-257.46z m0 0" fill="#2FA182" p-id="18662"></path><path d="M528.58 469.12V305.65h-58.41v164.23a58.44 58.44 0 1 0 58.41-0.76z m0 0" fill="#2FA182" p-id="18663"></path></svg>