<?xml version="1.0" standalone="no"?><!DOCTYPE svg PUBLIC "-//W3C//DTD SVG 1.1//EN" "http://www.w3.org/Graphics/SVG/1.1/DTD/svg11.dtd"><svg t="1584671081501" class="icon" viewBox="0 0 1024 1024" version="1.1" xmlns="http://www.w3.org/2000/svg" p-id="6091" width="32" height="32" xmlns:xlink="http://www.w3.org/1999/xlink"><defs><style type="text/css"></style></defs><path d="M855.6002624 962H168.06740732A103.53495498 103.53495498 0 0 1 64.78559404 858.46504502V442.04694893a103.28181328 103.28181328 0 0 1 103.28181328-101.25667969h687.53285508a103.28181328 103.28181328 0 0 1 103.28181416 101.25667969v416.41809609a103.53495498 103.53495498 0 0 1-103.28181416 103.53495498zM168.06740732 402.80998555A39.99638847 39.99638847 0 0 0 128.07101885 442.04694893v416.41809609A40.24953018 40.24953018 0 0 0 168.06740732 897.70200839h687.53285508a40.24953018 40.24953018 0 0 0 39.99638848-40.24953016V442.04694893a39.99638847 39.99638847 0 0 0-39.99638848-39.99638848z" fill="#dbdbdb" p-id="6092"></path><path d="M911.03829453 820.24064844H563.2215998a31.6427124 31.6427124 0 0 1-31.6427124-31.6427124V499.25697383A31.6427124 31.6427124 0 0 1 563.2215998 467.36111972h347.81669473a31.6427124 31.6427124 0 0 1 0 63.28542481H594.86431221v226.0555374h316.17398232a31.6427124 31.6427124 0 0 1 0 63.28542481z" fill="#dbdbdb" p-id="6093"></path><path d="M723.20715371 645.06659258m-63.5385665 0a63.53856651 63.53856651 0 1 0 127.077133 0 63.53856651 63.53856651 0 1 0-127.077133 0Z" fill="#dbdbdb" p-id="6094"></path><path d="M329.06552802 391.41860908a31.13642901 31.13642901 0 0 1-28.09872861-17.46677725 31.6427124 31.6427124 0 0 1 14.17593517-42.52780547L697.63984209 140.80832685a31.6427124 31.6427124 0 0 1 42.52780547 14.17593516l90.87787002 182.26202344A31.6427124 31.6427124 0 1 1 774.84806036 366.10443916L697.63984209 211.68800263l-354.39837891 177.19918946a31.3895707 31.3895707 0 0 1-14.17593516 2.53141699z" fill="#dbdbdb" p-id="6095"></path><path d="M232.87168232 391.41860908a31.6427124 31.6427124 0 0 1-20.50447763-55.69117382L524.74406152 69.92865107A31.6427124 31.6427124 0 0 1 571.06899248 74.73834336l75.94250976 96.9532708a31.6427124 31.6427124 0 0 1-50.62833984 38.47753828l-55.94431552-70.62653408-287.06268692 243.77545635a31.13642901 31.13642901 0 0 1-20.50447764 8.10053437z" fill="#dbdbdb" p-id="6096"></path></svg>