<?xml version="1.0" standalone="no"?><!DOCTYPE svg PUBLIC "-//W3C//DTD SVG 1.1//EN" "http://www.w3.org/Graphics/SVG/1.1/DTD/svg11.dtd"><svg t="1572942068122" class="icon" viewBox="0 0 1024 1024" version="1.1" xmlns="http://www.w3.org/2000/svg" p-id="16467" xmlns:xlink="http://www.w3.org/1999/xlink" width="64" height="64"><defs><style type="text/css"></style></defs><path d="M755.6864 867.5072l-147.3536 147.84a12.8 12.8 0 0 1-18.1248 0l-2.6368-2.6368a12.8 12.8 0 0 1 0-18.0736l145.92-146.3808a153.6 153.6 0 1 1 22.1696 19.2768z" fill="#50D4AB" p-id="16468"></path><path d="M51.8144 972.8H998.4a25.6 25.6 0 0 1 0 51.2H25.6a25.6 25.6 0 0 1-25.6-25.6c0-257.0752 171.9552-472.32 402.048-525.184A255.8208 255.8208 0 0 1 281.6 256c0-141.3888 114.6112-256 256-256s256 114.6112 256 256-114.6112 256-256 256c-6.5536 0-13.056-0.256-19.5072-0.7424A25.6512 25.6512 0 0 1 512 512c-246.0672 0-447.5648 203.8272-460.1856 460.8z m650.8544-240.0256a140.8 140.8 0 1 1 21.504 19.9424l-155.136 155.8272a14.592 14.592 0 0 1-20.7104 0 14.72 14.72 0 0 1 0-20.7616l154.368-155.008z m105.9328 22.4256a115.2 115.2 0 1 0 0-230.4 115.2 115.2 0 0 0 0 230.4zM537.6 460.8a204.8 204.8 0 1 0 0-409.6 204.8 204.8 0 0 0 0 409.6z" fill="#252B3A" p-id="16469"></path></svg>