<?xml version="1.0" standalone="no"?><!DOCTYPE svg PUBLIC "-//W3C//DTD SVG 1.1//EN" "http://www.w3.org/Graphics/SVG/1.1/DTD/svg11.dtd"><svg t="1572942034798" class="icon" viewBox="0 0 1024 1024" version="1.1" xmlns="http://www.w3.org/2000/svg" p-id="16355" xmlns:xlink="http://www.w3.org/1999/xlink" width="64" height="64"><defs><style type="text/css"></style></defs><path d="M484.508 417.331H271.967c-21.675 0-39.374 17.941-39.374 39.909v34.71h253.33a178.57 178.57 0 0 1-1.415-74.619z m168.67-106.016c-76.199 0-138.215 62.87-138.215 140.088 0 77.206 62.016 140.102 138.215 140.102 18.4 0 36.545-3.721 53.518-10.959 0.104-0.051 0.205-0.102 0.357-0.152 49.543-21.305 84.354-71.141 84.354-128.991-0.001-77.217-62.03-140.088-138.229-140.088z m58.258 184.279h-44.037v29.001c0 7.275-5.76 13.24-12.996 13.24-7.188 0-12.998-5.863-12.998-13.164v-29.078h-43.986c-7.238 0-12.996-5.861-12.996-13.15 0-7.314 5.758-13.176 12.996-13.176h43.986v-21.713h-39.604c-7.186 0-12.996-5.861-12.996-13.15s5.811-13.15 12.996-13.15h23.09l-28.287-31.244c-4.844-5.326-4.486-13.685 0.814-18.655 5.25-4.893 13.508-4.536 18.451 0.79l38.635 42.687 38.635-42.687c4.842-5.326 13.098-5.683 18.451-0.79 5.301 4.893 5.656 13.252 0.814 18.68l-28.287 31.219h22.987c7.137 0 12.947 5.887 12.947 13.15 0 7.212-5.811 13.176-12.998 13.176h-39.654v21.687h44.037c7.188 0 12.998 5.862 12.998 13.176 0 7.29-5.811 13.151-12.998 13.151z m-179.819 79.041a183.353 183.353 0 0 1-14.553-16.77H232.593v134.406c0 22.02 17.699 39.908 39.374 39.908h385.187c21.713 0 39.398-17.889 39.398-39.908V620.1c-14.016 3.619-28.543 5.555-43.375 5.555-45.921-0.001-89.093-18.094-121.56-51.02zM903.387 3.181H120.601c-64.846 0-117.42 52.575-117.42 117.407v782.798c0 64.832 52.574 117.432 117.42 117.432h782.786c64.832 0 117.432-52.6 117.432-117.432V120.588c-0.001-64.832-52.6-117.407-117.432-117.407zM774.74 574.635c-12.947 13.201-27.982 24.16-44.395 32.518v85.17c0 40.775-32.824 74.059-73.191 74.059H271.967c-40.343 0-73.09-33.283-73.09-74.059V457.138c0-40.903 32.824-74.084 73.09-74.084h222.978a173.805 173.805 0 0 1 36.672-54.868c32.467-32.926 75.639-51.045 121.561-51.045 45.924 0 89.094 18.119 121.563 51.045h0.051c32.467 32.9 50.307 76.683 50.307 123.218-0.001 46.56-17.841 90.305-50.359 123.231z" fill="#00CEFF" p-id="16356"></path></svg>